# xmcd
#
# Track frame offsets: 
#        182
#        13697
#        34960
#        50730
#
# Disc length: 947 seconds
#
# Revision: 0
# Processed by: cddbd v1.5.2PL0 Copyright (c) Steve Scherf et al.
# Submitted via: ExactAudioCopyFreeDBPlugin 1.0
#
DISCID=3003b104
DTITLE=Mary J. Blige - Natural woman
DYEAR=1995
DGENRE=R&B
TTITLE0=(You Make Me Feel Like A) Natural Woman
TTITLE1=Be Happy (Puffy Remix)
TTITLE2=Mary's Joint (Puffy Remix)
TTITLE3=Changes I've Been Going Trhough (Teddy Riley Remix)
EXTD=
EXTT0=
EXTT1=
EXTT2=
EXTT3=
PLAYORDER=
